<svg width="32" height="32" viewBox="0 0 32 32" fill="none" xmlns="http://www.w3.org/2000/svg">
  <defs>
    <linearGradient id="sanjana-gradient" x1="0%" y1="0%" x2="100%" y2="100%">
      <stop offset="0%" stop-color="#3B82F6" />
      <stop offset="50%" stop-color="#8B5CF6" />
      <stop offset="100%" stop-color="#A855F7" />
    </linearGradient>
  </defs>
  <!-- Neural spark base - abstract S shape -->
  <path
    d="M20 8C20 8 24 10 24 14C24 18 20 20 16 20C12 20 8 18 8 14"
    stroke="url(#sanjana-gradient)"
    stroke-width="2.5"
    stroke-linecap="round"
    fill="none"
  />
  <path
    d="M12 24C12 24 8 22 8 18C8 14 12 12 16 12C20 12 24 14 24 18"
    stroke="url(#sanjana-gradient)"
    stroke-width="2.5"
    stroke-linecap="round"
    fill="none"
  />
  <!-- Neural spark endpoints -->
  <circle cx="20" cy="8" r="2" fill="url(#sanjana-gradient)" />
  <circle cx="12" cy="24" r="2" fill="url(#sanjana-gradient)" />
  <!-- Connection nodes -->
  <circle cx="8" cy="14" r="1.5" fill="url(#sanjana-gradient)" opacity="0.8" />
  <circle cx="24" cy="18" r="1.5" fill="url(#sanjana-gradient)" opacity="0.8" />
  <circle cx="16" cy="16" r="1.5" fill="url(#sanjana-gradient)" opacity="0.6" />
</svg>
